<svg xmlns="http://www.w3.org/2000/svg" viewBox="0 0 429.17 143.51"><path d="M239.82 124.3h11.11c3.38 0 5.54 2.3 5.54 5.76 0 3-1.26 5.76-6.44 5.76h-10.21Zm0-3.6v-9.85h10c3.69 0 5.4 2 5.4 5s-1.26 4.9-5.85 4.9Zm19.44-5.35c0-5-4-8.1-10.53-8.1h-13v32.17h13.86c6.66 0 10.89-3.42 10.89-9.36 0-4.81-2.88-7.38-6.26-8V122c2.66-.9 5-2.7 5-6.66m-29 13.36v-21.45h-4.05v21.46c0 5.22-2.7 7.74-8.28 7.74s-8.28-2.52-8.28-7.74v-21.46h-4v21.46c0 6.57 3.73 11.34 12.33 11.34s12.33-4.77 12.33-11.34m-55.44-21.46v32.17h4v-14.89h17.19v14.89h4v-32.17h-4v13.68h-17.13v-13.68ZM404 89.42h4.05V63h.09l16.06 26.41h4.95V57.25h-4.05v26.5h-.1l-16-26.5h-5Zm-20.56-3c-8.1 0-11.7-6.21-11.7-13.14s3.6-13.09 11.7-13.09 11.7 6.16 11.7 13.09-3.6 13.14-11.7 13.14m0 3.6c9.45 0 15.75-7.06 15.75-16.74s-6.3-16.69-15.75-16.69-15.75 7-15.75 16.69 6.3 16.74 15.75 16.74m-24.93-.63h4.05V57.25h-4.05Zm-18.86 0h4.05V60.85h10.71v-3.6H329v3.6h10.71Zm-27.92-11.62L317.44 61h.09l5.72 16.79Zm12.82 3.6 2.84 8h4.18l-11.83-32.12h-4.5l-11.88 32.17h4.18l2.84-8Zm-45.9-24.12 11.25 32.17h4.46l11.25-32.17h-4.28l-9.18 28.12-9.18-28.12Zm-16.42 29.2c-8.1 0-11.7-6.21-11.7-13.14s3.6-13.09 11.7-13.09 11.7 6.16 11.7 13.09-3.6 13.14-11.7 13.14m0 3.6c9.45 0 15.77-7.05 15.77-16.74s-6.3-16.69-15.75-16.69-15.75 7-15.75 16.69 6.3 16.74 15.75 16.74m-46-.63h4.05V63h.09l16.07 26.41h4.95V57.25h-4.05v26.5h-.09l-16.07-26.5h-4.95Zm-31.18 0h4.05V63h.09l16.09 26.42h4.95V57.25h-4.05v26.5h-.09l-16.06-26.5h-5Zm-10.17 0h4V57.25h-4Zm129.31-71.55h4.05c-.76-6.12-5.8-11.25-13.68-11.25-8.82 0-14.89 7-14.89 16.69s6.07 16.74 14.89 16.74c7.92 0 13-5.13 13.68-12.24h-4.05c-.27 4.05-2.88 8.64-9.63 8.64-7.65 0-10.84-6.61-10.84-13.14s3.19-13.09 10.84-13.09c6.71 0 9.05 4.59 9.63 7.65m-33.7 21.55h4.05V7.25h-4.05Zm-16.7-18.76c-4.72-1.17-8.19-1.76-8.19-6 0-2.66 2.43-4.41 7-4.41 5.08 0 7.51 2.25 8.1 6.57h4.05c-.54-6.66-5.31-10.17-12.15-10.17-7.11 0-11 3.37-11 8.46 0 6.25 5.76 7.92 10.58 9 7.2 1.67 9.58 2.48 9.58 6.89 0 2.88-2 5.44-7.56 5.44-6.75 0-9.45-3.42-9.9-7.83h-4.05c.45 7.38 6.35 11.43 13.95 11.43 8.15 0 11.61-4.36 11.61-9 0-7.34-4.72-8.55-12-10.35m-17.5 8.05V7.25h-4.05v21.46c0 5.22-2.7 7.74-8.28 7.74s-8.28-2.52-8.28-7.74V7.25h-4v21.46c0 6.57 3.73 11.34 12.33 11.34s12.33-4.77 12.33-11.34m-61.54 10.71h4V13h.16l9.72 26.46h3.6L202 13h.09v26.42h4V7.25h-5.54L190.54 34h-.09L180.37 7.25h-5.53ZM123.9 143.51c-12 0-21.21-9.57-21.53-22.33-.31-12.08-7.07-24.83-18.53-27.43-2.81-.64-13-.5-15.89-1C56.71 91 49 81.09 49.71 69.39a21.63 21.63 0 0 1 20.9-20.34c8.14-.18 21.12-4.62 26.28-11.1a25.15 25.15 0 0 0 5.45-15.76c.18-11.09 6.19-19.85 16.72-21.84 11.85-2.23 24.56 6.43 26.24 18.85C147 31.39 138 42.93 126.09 44a61 61 0 0 0-11.33 1.92c-10.88 4.48-21.54 12.4-21.54 26.17 0 12.29 18.14 27.09 30.86 27.44a21.58 21.58 0 0 1 21 18c2.46 13.64-7.66 26.05-21.23 26.05" fill="currentcolor"/><path d="M145.65 71.81a20.68 20.68 0 1 1-41.34-.16c0-11.62 9.32-21.05 20.66-21a20.88 20.88 0 0 1 20.68 21.19m-52.87 50.59a20.67 20.67 0 1 1-41.32-.16c.06-11.61 9.32-21 20.65-21a20.88 20.88 0 0 1 20.67 21.19M20.66 143a20.9 20.9 0 0 0 20.66-21.1V70.14A20.9 20.9 0 0 0 20.66 49 20.9 20.9 0 0 0 0 70.14v51.76A20.9 20.9 0 0 0 20.66 143M47.81 28.72a21 21 0 0 1 15.08 6.39 18.9 18.9 0 0 0 13.56 5.75 19.41 19.41 0 0 0 19.17-19.61A19.41 19.41 0 0 0 76.45 1.63a18.9 18.9 0 0 0-13.56 5.75 21 21 0 0 1-15.08 6.39 21 21 0 0 1-15.09-6.39 18.9 18.9 0 0 0-13.56-5.75A19.41 19.41 0 0 0 0 21.25a19.4 19.4 0 0 0 19.16 19.61 18.9 18.9 0 0 0 13.56-5.75 21 21 0 0 1 15.09-6.39" fill="currentcolor"/></svg>