<svg width="45" height="18" viewBox="0 0 45 18" fill="none" xmlns="http://www.w3.org/2000/svg">
<path d="M44.5285 9.00961C44.5285 8.92583 44.5285 8.87894 44.5285 8.87894H44.5277C44.5185 8.23793 44.4516 6.53469 44.015 5.14659C43.7368 4.26269 43.3141 4.64776 43.1811 4.82608C43.0696 4.97596 42.0243 6.42017 41.185 7.02891C40.4864 7.53542 39.3411 8.02579 38.0522 8.31248C38.0453 6.93206 37.9968 4.03903 37.7178 3.05598C37.7178 3.05598 37.6602 2.76775 37.5341 2.6002C37.4242 2.45416 37.2198 2.38575 37.0422 2.64631C36.9023 2.8523 35.2714 5.36872 34.0992 6.33255C33.482 6.83983 32.9732 7.17187 32.5728 7.29792C32.549 5.35565 32.4598 2.36039 32.1447 1.24668C32.1447 1.24668 32.0701 0.8716 31.9049 0.653316C31.7619 0.464238 31.4952 0.374311 31.2646 0.713267C31.0824 0.981511 28.9611 4.25577 27.4354 5.51014C26.1057 6.60387 25.1611 7.07733 24.6031 6.72608C24.218 6.48397 24.0874 6.06507 24.0474 5.40023C24.0474 5.40023 23.886 2.75161 23.8714 2.4949C23.8575 2.23818 23.8145 1.49725 23.6147 0.912336C23.547 0.714036 23.4625 0.574918 23.3718 0.478842C23.2703 0.358171 22.9298 0 22.2642 0C21.5479 0 21.2397 0.37508 21.1313 0.505743C21.1313 0.506512 21.1305 0.50728 21.1298 0.508818C21.0498 0.603356 20.9753 0.733251 20.9138 0.911567C20.7139 1.49571 20.6717 2.23741 20.6571 2.49413C20.6432 2.75084 20.4811 5.39946 20.4811 5.39946C20.4411 6.06431 20.3104 6.4832 19.9254 6.72531C19.3673 7.07656 18.4227 6.6031 17.093 5.50937C15.5674 4.25501 13.446 0.979973 13.2638 0.712498C13.0325 0.373543 12.7666 0.46347 12.6236 0.652547C12.4591 0.8716 12.3838 1.24591 12.3838 1.24591C12.0687 2.35962 11.9795 5.35488 11.9557 7.29715C11.5545 7.17187 11.0456 6.83983 10.4292 6.33178C9.2571 5.36795 7.62611 2.85153 7.48623 2.64554C7.30868 2.38499 7.10423 2.45416 6.99432 2.59943C6.8675 2.76775 6.81062 3.05521 6.81062 3.05521C6.53162 4.03826 6.4832 6.93129 6.47628 8.31171C5.18733 8.02502 4.0421 7.53465 3.34344 7.02814C2.50489 6.42017 1.45882 4.97519 1.34737 4.82531C1.2144 4.647 0.791665 4.26192 0.513429 5.14582C0.0768607 6.53469 0.0107605 8.23869 0.00153721 8.87894H0C0 8.87894 0 8.92583 0 9.00961C0 9.09262 0 9.14027 0 9.14027H0.000768607C0.00999189 9.78129 0.0768607 11.4845 0.513429 12.8726C0.791665 13.7565 1.2144 13.3714 1.34737 13.1931C1.45882 13.0433 2.50412 11.599 3.34344 10.9903C4.0421 10.4838 5.18733 9.99342 6.47628 9.70673C6.4832 11.0871 6.53239 13.9802 6.81062 14.964C6.81062 14.964 6.86827 15.2522 6.99432 15.4198C7.10423 15.5651 7.30945 15.6342 7.48623 15.3737C7.62611 15.1677 9.2571 12.6513 10.4292 11.6874C11.0464 11.1802 11.5552 10.8473 11.9557 10.7221C11.9795 12.6643 12.0687 15.6596 12.3838 16.7733C12.3838 16.7733 12.4583 17.1484 12.6236 17.3667C12.7666 17.5565 13.0333 17.6457 13.2638 17.3067C13.446 17.0385 15.5674 13.7642 17.093 12.5098C18.4227 11.4161 19.3673 10.9427 19.9254 11.2939C20.3104 11.536 20.4411 11.9549 20.4811 12.6198C20.4811 12.6198 20.6425 15.2684 20.6571 15.5251C20.6717 15.7818 20.7139 16.5227 20.9138 17.1076C20.9707 17.2744 21.0398 17.3989 21.1144 17.4919C21.1144 17.4919 21.1144 17.4935 21.1152 17.4943C21.1175 17.4973 21.1213 17.5012 21.1236 17.5042C21.1259 17.5073 21.129 17.5104 21.1313 17.5135C21.2527 17.658 21.5786 18.0008 22.2635 18.0008C22.8868 18.0008 23.2281 17.6956 23.3526 17.5604C23.4502 17.4635 23.5417 17.3198 23.6139 17.1084C23.8137 16.5243 23.856 15.7826 23.8706 15.5259C23.8852 15.2691 24.0466 12.6205 24.0466 12.6205C24.0866 11.9557 24.218 11.5368 24.6023 11.2947C25.1603 10.9434 26.105 11.4177 27.4346 12.5106C28.9596 13.765 31.0817 17.04 31.2638 17.3075C31.4952 17.6464 31.7611 17.5573 31.9041 17.3674C32.0686 17.1484 32.1439 16.7741 32.1439 16.7741C32.4598 15.6604 32.5482 12.6651 32.572 10.7228C32.9732 10.8481 33.482 11.1802 34.0985 11.6882C35.2706 12.652 36.9016 15.1685 37.0415 15.3744C37.219 15.635 37.4235 15.5658 37.5334 15.4206C37.6602 15.2522 37.7171 14.9648 37.7171 14.9648C37.9961 13.981 38.0445 11.0887 38.0514 9.7075C39.3404 9.99419 40.4856 10.4846 41.1842 10.9911C42.0228 11.599 43.0681 13.044 43.1803 13.1939C43.3133 13.3722 43.736 13.7573 44.0143 12.8734C44.4508 11.4853 44.5177 9.78206 44.5269 9.14104H44.5277C44.5277 9.14104 44.5285 9.09415 44.5277 9.01038" fill="black"/>
</svg>
